<?xml version="1.0" standalone="no"?><!DOCTYPE svg PUBLIC "-//W3C//DTD SVG 1.1//EN" "http://www.w3.org/Graphics/SVG/1.1/DTD/svg11.dtd"><svg height="3609" node-id="1" sillyvg="true" template-height="3609" template-width="2030" version="1.1" viewBox="0 0 2030 3609" width="2030" xmlns="http://www.w3.org/2000/svg" xmlns:xlink="http://www.w3.org/1999/xlink"><defs node-id="80"><clipPath id="clip0_151_5" node-id="77"><path d="M 0.00 0.00 L 2030.00 0.00 L 2030.00 3608.89 L 0.00 3608.89 Z" fill="#000000" fill-rule="nonzero" node-id="83" stroke="none" target-height="3608.89" target-width="2030" target-x="0" target-y="0"></path></clipPath></defs><g clip-path="url(#clip0_151_5)" id="sillyvg_g_0" node-id="87"><path d="M 0.00 0.00 L 2030.00 0.00 L 2030.00 3608.89 L 0.00 3608.89 Z" fill="#ffffff" fill-rule="nonzero" node-id="89" stroke="none" target-height="3608.89" target-width="2030" target-x="0" target-y="0"></path><path d="M 0.00 2761.18 L 451.11 2761.18 L 451.11 3607.01 L 0.00 3607.01 Z" fill="#f3a20a" fill-rule="nonzero" node-id="91" stroke="none" target-height="845.83325" target-width="451.111" target-x="0" target-y="2761.1797"></path><path d="M 1648.44 2742.38 L 2030.01 2742.38 L 2030.01 3608.89 L 1648.44 3608.89 Z" fill="#237f6a" fill-rule="nonzero" node-id="93" stroke="none" target-height="866.50903" target-width="381.56506" target-x="1648.44" target-y="2742.38"></path><path d="M 414.46 3204.49 L 449.23 3198.80 L 453.93 2761.18 L 1648.44 2761.18 L 1648.44 3608.89 L 453.93 3608.89 L 453.93 3341.19 L 446.41 3341.19 L 414.46 3320.31 L 449.23 3316.51 L 392.84 3309.86 L 446.41 3306.07 L 410.70 3301.32 L 433.25 3292.78 L 408.82 3292.78 L 430.44 3282.33 L 410.70 3282.33 L 433.25 3275.69 L 414.46 3271.89 L 437.95 3268.10 L 408.82 3263.35 L 417.28 3256.70 L 430.44 3250.06 L 433.25 3244.36 L 426.68 3244.36 L 363.71 3244.36 L 331.75 3245.31 L 325.18 3242.46 L 302.62 3242.46 L 296.98 3246.26 L 296.98 3238.67 L 279.12 3235.82 L 276.31 3229.17 L 294.16 3229.17 L 291.34 3225.38 L 320.48 3220.63 L 347.73 3220.63 L 371.23 3216.83 L 371.23 3212.09 L 397.54 3212.09 L 392.84 3208.29 L 414.46 3204.49 Z" fill="#f9f1de" fill-rule="nonzero" node-id="95" stroke="none" target-height="847.7102" target-width="1372.1339" target-x="276.306" target-y="2761.1797"></path><path d="M 1372.13 2977.33 L 1560.09 2977.33 L 1560.09 3165.29 L 1372.13 3165.29 Z" fill="#f97a6b" fill-rule="nonzero" node-id="97" stroke="none" target-height="187.96313" target-width="187.96301" target-x="1372.13" target-y="2977.33"></path><path d="M 1065.75 2687.87 L 2030.00 2687.87 L 2030.00 2761.18 L 1065.75 2761.18 Z" fill="#000000" fill-rule="nonzero" node-id="99" stroke="none" target-height="73.305664" target-width="964.25" target-x="1065.75" target-y="2687.87"></path><path d="M 1020.64 2161.57 L 1375.89 2161.57 L 1375.89 2687.87 L 1020.64 2687.87 Z" fill="#62594a" fill-rule="nonzero" node-id="101" stroke="none" target-height="526.29614" target-width="355.24994" target-x="1020.6401" target-y="2161.57"></path><path d="M 0.00 0.00 L 1007.48 0.00 L 1007.48 1283.79 L 0.00 1283.79 Z" fill="#0e416e" fill-rule="nonzero" node-id="103" stroke="none" target-height="1283.79" target-width="1007.48004" target-x="0" target-y="0"></path><path d="M 962.37 0.00 L 1264.99 0.00 L 1264.99 1266.87 L 962.37 1266.87 Z" fill="#62594a" fill-rule="nonzero" node-id="105" stroke="none" target-height="1266.87" target-width="302.61993" target-x="962.37006" target-y="0"></path><path d="M 0.00 1223.64 L 1411.60 1223.64 L 1411.60 2184.13 L 0.00 2184.13 Z" fill="#f3a20a" fill-rule="nonzero" node-id="107" stroke="none" target-height="960.4911" target-width="1411.6001" target-x="0" target-y="1223.64"></path><path d="M 1261.23 0.00 L 1530.02 0.00 L 1530.02 1223.64 L 1261.23 1223.64 Z" fill="#000000" fill-rule="nonzero" node-id="109" stroke="none" target-height="1223.64" target-width="268.78687" target-x="1261.23" target-y="0"></path><path d="M 1528.14 2184.13 L 1528.14 1304.46 L 1682.27 1222.70 L 1682.27 2184.13 L 1528.14 2184.13 Z" fill="#f97a6b" fill-rule="nonzero" node-id="111" stroke="none" target-height="961.42993" target-width="154.13013" target-x="1528.1399" target-y="1222.7"></path><path d="M 1528.14 2687.87 L 1528.14 2184.13 L 1682.27 2184.13 L 1682.27 2687.87 L 1528.14 2687.87 Z" fill="#124270" fill-rule="nonzero" node-id="113" stroke="none" target-height="503.74023" target-width="154.13013" target-x="1528.1399" target-y="2184.13"></path><path d="M 1682.27 1214.24 L 2030.00 1214.24 L 2030.00 2184.13 L 1682.27 2184.13 Z" fill="#e84703" fill-rule="nonzero" node-id="115" stroke="none" target-height="969.8889" target-width="347.73096" target-x="1682.27" target-y="1214.24"></path><path d="M 1682.27 0.00 L 2030.00 0.00 L 2030.00 1223.64 L 1682.27 1223.64 Z" fill="#838905" fill-rule="nonzero" node-id="117" stroke="none" target-height="1223.64" target-width="347.73096" target-x="1682.27" target-y="0"></path><path d="M 1528.14 0.00 L 1682.27 0.00 L 1682.27 1223.64 L 1528.14 1223.64 Z" fill="#f3a20a" fill-rule="nonzero" node-id="119" stroke="none" target-height="1223.64" target-width="154.13013" target-x="1528.1399" target-y="0"></path><path d="M 1528.14 1304.46 L 1528.14 1223.64 L 1681.33 1223.64 L 1528.14 1304.46 Z" fill="#f3a20a" fill-rule="nonzero" node-id="121" stroke="none" target-height="80.81995" target-width="153.19006" target-x="1528.1399" target-y="1223.64"></path><path d="M 1682.27 2184.13 L 2030.00 2184.13 L 2030.00 2687.87 L 1682.27 2687.87 Z" fill="#237f6a" fill-rule="nonzero" node-id="123" stroke="none" target-height="503.74097" target-width="347.73096" target-x="1682.27" target-y="2184.13"></path><path d="M 1372.13 327.06 L 1530.02 327.06 L 1530.02 2184.13 L 1372.13 2184.13 Z" fill="#237f6a" fill-rule="nonzero" node-id="125" stroke="none" target-height="1857.07" target-width="157.88904" target-x="1372.13" target-y="327.056"></path><path d="M 1372.13 2184.13 L 1528.14 2184.13 L 1528.14 2687.87 L 1372.13 2687.87 Z" fill="#838905" fill-rule="nonzero" node-id="127" stroke="none" target-height="503.74097" target-width="156.00891" target-x="1372.13" target-y="2184.13"></path><path d="M 0.00 1223.64 L 1261.23 1223.64 L 1261.23 2043.16 L 0.00 2043.16 Z" fill="#f9f1de" fill-rule="nonzero" node-id="129" stroke="none" target-height="819.51807" target-width="1261.23" target-x="0" target-y="1223.64"></path><path d="M 381.56 1787.53 L 447.35 1787.53 L 447.35 2394.65 L 381.56 2394.65 Z" fill="#f97a6b" fill-rule="nonzero" node-id="131" stroke="none" target-height="607.12" target-width="65.78696" target-x="381.565" target-y="1787.5299"></path><path d="M 0.00 1781.89 L 389.08 1781.89 L 389.08 2761.18 L 0.00 2761.18 Z" fill="#237f6a" fill-rule="nonzero" node-id="133" stroke="none" target-height="979.2866" target-width="389.083" target-x="0" target-y="1781.8901"></path><path d="M 0.00 1661.59 L 389.08 1661.59 L 389.08 1791.28 L 0.00 1791.28 Z" fill="#e84703" fill-rule="nonzero" node-id="135" stroke="none" target-height="129.69385" target-width="389.083" target-x="0" target-y="1661.59"></path><path d="M 447.35 1661.59 L 388.14 1661.59 L 388.14 1790.35 L 447.35 1889.97 L 447.35 1661.59 Z" fill="#e84703" fill-rule="nonzero" node-id="137" stroke="none" target-height="228.38" target-width="59.207947" target-x="388.144" target-y="1661.59"></path><path d="M 0.00 2078.87 L 214.28 2078.87 L 214.28 2390.89 L 0.00 2390.89 Z" fill="#000000" fill-rule="nonzero" node-id="139" stroke="none" target-height="312.01904" target-width="214.278" target-x="0" target-y="2078.87"></path><path d="M 214.28 2390.89 L 447.35 2390.89 L 447.35 2687.87 L 214.28 2687.87 Z" fill="#000000" fill-rule="nonzero" node-id="141" stroke="none" target-height="296.98096" target-width="233.07396" target-x="214.278" target-y="2390.89"></path><path d="M 214.28 2687.87 L 1178.53 2687.87 L 1178.53 2761.18 L 214.28 2761.18 Z" fill="#62594a" fill-rule="nonzero" node-id="143" stroke="none" target-height="73.305664" target-width="964.24994" target-x="214.278" target-y="2687.87"></path><path d="M 447.35 2043.16 L 577.05 2043.16 L 577.05 2191.65 L 447.35 2191.65 Z" fill="#838905" fill-rule="nonzero" node-id="145" stroke="none" target-height="148.49109" target-width="129.69406" target-x="447.35196" target-y="2043.16"></path><path d="M 447.35 2184.13 L 1167.25 2184.13 L 1167.25 2687.87 L 447.35 2687.87 Z" fill="#838905" fill-rule="nonzero" node-id="147" stroke="none" target-height="503.74097" target-width="719.8981" target-x="447.35196" target-y="2184.13"></path><path d="M 577.05 1996.17 L 765.01 1996.17 L 765.01 2184.13 L 577.05 2184.13 Z" fill="#f9f1de" fill-rule="nonzero" node-id="149" stroke="none" target-height="187.96301" target-width="187.96301" target-x="577.046" target-y="1996.17"></path><path d="M 635.32 743.39 L 635.32 801.66" fill="none" node-id="151" stroke="#000000" stroke-linecap="round" stroke-width="24.4352" target-height="58.268982" target-width="0" target-x="635.315" target-y="743.393"></path><path d="M 405.06 1137.18 L 83.64 1103.34 L 337.39 1090.19 C 569.01 1079.25 700.14 1079.49 936.06 1090.19 L 1215.18 1103.34 L 1006.54 1137.18 L 405.06 1137.18 Z" fill="#f3d5c1" fill-rule="nonzero" node-id="153" stroke="none" target-height="57.930054" target-width="1131.5365" target-x="83.6436" target-y="1079.25"></path><path d="M 635.32 1067.63 C 635.32 1067.63 634.38 1539.42 634.38 1592.05 C 634.38 1644.68 544.15 1639.98 544.15 1592.05" fill="none" node-id="155" stroke="#000000" stroke-linecap="round" stroke-width="24.4352" target-height="577.0499" target-width="91.16199" target-x="544.153" target-y="1067.63"></path><path d="M 623.10 1124.96 L 694.52 1065.75 L 840.19 1090.19 C 877.44 1135.25 884.15 1161.38 869.33 1209.54 L 1008.42 1376.83 L 1073.27 1526.26 L 1283.79 2550.66 C 1038.27 2625.43 888.22 2626.27 602.42 2567.57 L 657.87 1822.30 L 617.46 1707.64 L 617.46 1664.41 L 593.96 1621.18 L 609.94 1601.44 L 609.94 1589.23 L 592.08 1568.55 L 592.08 1551.63 L 602.42 1537.54 L 592.08 1533.78 L 592.08 1526.26 L 602.42 1521.56 L 593.96 1515.92 L 592.08 1504.64 L 607.12 1499.94 L 595.84 1490.55 L 595.84 1478.33 L 604.30 1469.87 L 617.46 1462.35 L 643.77 1462.35 L 657.87 1466.11 L 671.97 1504.64 L 688.88 1533.78 L 695.46 1533.78 L 715.20 1419.12 L 684.18 1376.83 L 743.39 1322.32 L 743.39 1308.22 L 688.88 1312.92 L 643.77 1224.58 L 623.10 1124.96 Z" fill="#000000" fill-rule="nonzero" node-id="157" stroke="none" target-height="1560.52" target-width="691.70703" target-x="592.083" target-y="1065.75"></path><path d="M 1218.94 1109.92 C 1052.59 695.46 241.53 671.97 69.55 1105.22 C 69.55 1105.22 224.13 1095.69 323.30 1092.06 C 559.87 1083.42 692.95 1082.20 929.48 1092.06 C 1042.64 1096.78 1218.94 1109.92 1218.94 1109.92 Z" fill="#f9f1de" fill-rule="nonzero" node-id="159" stroke="none" target-height="437.95203" target-width="1149.3937" target-x="69.5463" target-y="671.968"></path><path d="M 931.36 1092.06 C 891.23 942.99 840.00 870.82 684.18 790.38 C 963.31 817.64 1113.68 894.70 1219.88 1108.04 L 931.36 1092.06 Z" fill="#f3d5c1" fill-rule="nonzero" node-id="161" stroke="none" target-height="317.65607" target-width="535.695" target-x="684.185" target-y="790.384"></path><path d="M 593.96 2783.73 L 660.69 2569.45 L 852.41 2578.85 L 750.91 2819.44 L 701.10 2919.06 L 703.92 2934.10 L 682.30 3004.59 L 675.73 3004.59 L 670.09 3029.96 L 577.05 3011.17 L 579.87 2992.37 L 570.47 2987.67 L 529.12 2992.37 C 460.83 2974.98 423.39 2964.47 390.96 2914.37 L 420.10 2888.99 L 504.68 2896.51 L 562.95 2860.80 L 570.47 2824.14 L 593.96 2783.73 Z" fill="#000000" fill-rule="nonzero" node-id="163" stroke="none" target-height="460.51" target-width="461.449" target-x="390.96298" target-y="2569.45"></path><path d="M 332.69 2963.24 L 0.00 2955.72 L 0.00 2963.24 L 0.00 3100.45 L 533.82 3115.49 L 676.67 3115.49 L 652.23 3100.45 L 702.04 3085.41 L 676.67 3037.48 L 673.85 3040.30 L 667.27 3032.78 L 673.85 3017.75 L 581.75 2997.07 L 581.75 3007.41 L 494.34 3007.41 L 478.37 3009.29 L 452.05 3007.41 L 390.96 3003.65 L 396.60 2997.07 L 359.01 2997.07 L 359.95 2992.37 L 324.24 2992.37 L 347.73 2989.55 L 324.24 2987.67 L 378.75 2988.61 L 352.43 2985.79 L 379.69 2982.97 L 348.67 2983.91 L 364.65 2981.09 L 342.09 2981.09 L 359.95 2979.21 L 347.73 2978.27 L 332.69 2977.33 L 315.78 2977.33 L 332.69 2963.24 Z" fill="#000000" fill-rule="nonzero" node-id="165" stroke="none" target-height="159.76978" target-width="702.04205" target-x="0" target-y="2955.7202"></path><path d="M 570.47 3200.07 L 533.82 3107.97 L 499.98 3009.29 L 582.68 3009.29 L 671.03 3031.84 L 704.86 3090.11 L 659.75 3097.63 L 675.73 3110.79 L 710.50 3107.97 L 737.75 3179.39 L 684.18 3200.07 L 570.47 3200.07 Z" fill="#000000" fill-rule="nonzero" node-id="167" stroke="none" target-height="190.78027" target-width="237.77396" target-x="499.981" target-y="3009.2898"></path><path d="M 1257.47 2761.18 L 1533.78 2761.18 L 1533.78 2858.92 L 1257.47 2858.92 Z" fill="#e84703" fill-rule="nonzero" node-id="169" stroke="none" target-height="97.74072" target-width="276.30603" target-x="1257.47" target-y="2761.1797"></path><path d="M 1529.08 2953.84 L 1245.25 2953.84 L 1191.69 3028.08 L 1191.69 3607.95 L 1529.08 3607.95 L 1529.08 3105.15 L 1510.28 3094.81 L 1529.08 3078.83 L 1469.87 3087.29 L 1529.08 3069.44 L 1486.79 3075.07 L 1519.68 3061.92 L 1450.13 3069.44 L 1505.58 3054.40 L 1431.34 3054.40 L 1529.08 3039.36 L 1529.08 2953.84 Z" fill="#e84703" fill-rule="nonzero" node-id="171" stroke="none" target-height="654.1094" target-width="337.3899" target-x="1191.69" target-y="2953.8403"></path><path d="M 592.08 3260.15 L 615.58 3253.44 L 762.19 3253.44 L 1098.64 3255.36 L 1141.87 3165.30 L 1296.94 3237.15 L 1264.99 3363.62 L 1240.56 3409.61 L 1296.94 3417.27 L 1258.41 3608.89 L 625.92 3608.89 L 615.58 3535.12 L 603.36 3509.25 L 615.58 3459.43 L 607.12 3417.27 L 628.74 3415.36 L 625.92 3365.54 L 644.71 3355.95 L 661.63 3349.25 L 628.74 3344.46 L 635.32 3353.08 L 570.47 3353.08 L 603.36 3347.33 L 549.79 3339.67 L 578.93 3331.04 L 553.55 3331.04 L 570.47 3319.55 L 547.91 3319.55 L 562.01 3309.01 L 541.33 3306.13 L 566.71 3299.43 L 541.33 3293.68 L 568.59 3284.10 L 541.33 3284.10 L 575.17 3276.43 L 551.67 3270.69 L 592.08 3260.15 Z" fill="#000000" fill-rule="nonzero" node-id="173" stroke="none" target-height="443.58984" target-width="755.60693" target-x="541.333" target-y="3165.3"></path><path d="M 827.98 3410.57 L 805.42 3371.28 L 1032.86 3377.03 L 1032.86 3397.15 L 1046.01 3402.90 L 1046.01 3410.57 L 827.98 3410.57 Z" fill="#f9f1de" fill-rule="nonzero" node-id="175" stroke="none" target-height="39.29004" target-width="240.58893" target-x="805.4211" target-y="3371.28"></path><path d="M 1044.13 3080.71 L 1053.53 3060.98 L 1107.10 3038.42 L 1193.56 3046.88 L 1218.00 3060.98 L 1272.51 3080.71 L 1322.32 3096.69 L 1334.54 3116.43 L 1286.61 3265.86 L 1171.01 3265.86 L 1107.10 3276.19 L 1098.64 3244.24 L 1115.56 3217.93 L 1151.27 3144.62 L 1151.27 3128.64 L 1044.13 3080.71 Z" fill="#000000" fill-rule="nonzero" node-id="177" stroke="none" target-height="237.77002" target-width="290.41003" target-x="1044.13" target-y="3038.42"></path><path d="M 1153.15 2942.56 L 984.93 2583.55 L 1181.35 2565.69 L 1324.20 2918.12 L 1327.96 2952.90 L 1344.87 2998.95 L 1267.81 3033.72 L 1248.07 3013.99 L 1206.72 3054.40 C 1144.11 3070.49 1108.13 3074.20 1042.25 3070.37 L 1042.25 3041.24 L 1056.35 3022.44 L 1126.84 2991.43 L 1153.15 2942.56 Z" fill="#000000" fill-rule="nonzero" node-id="179" stroke="none" target-height="508.51" target-width="359.94397" target-x="984.926" target-y="2565.69"></path><path d="M 1401.26 3375.81 L 1525.32 3370.18 L 1525.32 3380.51 L 1401.26 3375.81 Z" fill="#f97a6b" fill-rule="nonzero" node-id="181" stroke="none" target-height="10.330078" target-width="124.05994" target-x="1401.26" target-y="3370.18"></path><path d="M 1110.86 3276.19 L 1334.54 3276.19 L 1334.54 3377.69 L 1110.86 3377.69 Z" fill="#e94601" fill-opacity="0.4" fill-rule="nonzero" node-id="183" stroke="none" target-height="101.5" target-width="223.67603" target-x="1110.86" target-y="3276.19"></path><path d="M 522.54 3135.22 L 746.21 3135.22 L 746.21 3236.72 L 522.54 3236.72 Z" fill="#f3a20a" fill-opacity="0.4" fill-rule="nonzero" node-id="185" stroke="none" target-height="101.499756" target-width="223.67609" target-x="522.537" target-y="3135.22"></path><path d="M 1528.14 2761.18 L 1667.23 2761.18 L 1667.23 3608.89 L 1528.14 3608.89 Z" fill="#f97a6b" fill-rule="nonzero" node-id="187" stroke="none" target-height="847.7136" target-width="139.09314" target-x="1528.1399" target-y="2761.1797"></path><path d="M 1567.61 2821.32 L 1729.26 2821.32 L 1729.26 2896.51 L 1567.61 2896.51 Z" fill="#237f6a" fill-rule="nonzero" node-id="189" stroke="none" target-height="75.18506" target-width="161.64795" target-x="1567.61" target-y="2821.3203"></path><path d="M 1674.75 3036.54 L 1644.68 3062.86 L 2028.12 3064.74 L 2028.12 3053.46 L 1934.14 3053.46 L 2028.12 3048.76 L 1873.05 3044.06 L 2028.12 3036.54 L 1706.70 3044.06 L 1674.75 3036.54 Z" fill="#f9f1de" fill-rule="nonzero" node-id="191" stroke="none" target-height="28.199951" target-width="383.44006" target-x="1644.6799" target-y="3036.54"></path><path d="M 197.33 92.63 C 196.94 91.61 196.44 90.61 195.70 89.84 C 194.96 89.07 194.05 88.58 193.07 88.47 C 192.09 88.36 191.09 88.63 190.20 89.22 C 189.31 89.81 188.60 90.67 187.99 91.58 C 187.99 91.58 187.99 91.58 187.99 91.58 C 185.32 95.65 183.41 99.82 182.28 104.07 C 181.80 105.86 181.46 107.67 181.25 109.49 C 172.72 185.49 165.57 261.63 159.83 337.94 C 159.50 342.28 159.18 346.62 158.86 350.97 C 158.77 352.19 159.14 353.41 159.91 354.36 C 160.69 355.32 161.80 355.93 163.01 356.07 C 164.23 356.21 165.45 355.86 166.42 355.10 C 167.38 354.33 168.01 353.22 168.20 352.02 C 168.20 352.02 168.20 352.02 168.20 352.02 C 168.85 347.71 169.50 343.41 170.14 339.10 C 181.47 263.42 191.40 187.58 199.93 111.59 C 200.14 109.77 200.20 107.93 200.13 106.07 C 199.97 101.68 199.04 97.20 197.33 92.63 Z" fill="#f9f1de" fill-rule="nonzero" node-id="193" stroke="none" target-height="267.8498" target-width="41.434006" target-x="158.769" target-y="88.3572"></path><path d="M 155.00 506.42 C 155.32 505.21 155.05 503.95 154.32 502.93 C 153.59 501.91 152.45 501.21 151.17 500.99 C 149.89 500.77 148.58 501.05 147.55 501.76 C 146.53 502.48 145.85 503.57 145.74 504.82 C 145.74 504.82 145.74 504.82 145.74 504.82 C 145.52 507.39 145.29 509.97 145.06 512.54 C 141.96 546.36 137.52 579.95 131.76 613.31 C 129.63 625.62 126.44 637.76 122.19 649.71 C 121.31 652.17 120.39 654.62 119.42 657.07 C 118.96 658.25 119.21 659.51 119.95 660.53 C 120.70 661.56 121.90 662.27 123.25 662.50 C 124.61 662.74 125.98 662.47 127.03 661.76 C 128.07 661.04 128.73 659.94 128.69 658.67 C 128.69 658.67 128.69 658.67 128.69 658.67 C 128.60 656.04 128.55 653.42 128.56 650.81 C 128.56 638.12 129.63 625.62 131.76 613.31 C 137.52 579.95 144.62 546.82 153.05 513.92 C 153.69 511.42 154.34 508.92 155.00 506.42 Z" fill="#f9f1de" fill-rule="nonzero" node-id="195" stroke="none" target-height="161.96805" target-width="36.363" target-x="118.956" target-y="500.76797"></path><path d="M 450.13 23.16 C 449.91 22.07 449.48 21.00 448.74 20.15 C 448.00 19.31 447.03 18.76 445.98 18.62 C 444.93 18.49 443.85 18.77 442.93 19.40 C 442.00 20.03 441.31 20.95 440.81 21.95 C 440.81 21.95 440.81 21.95 440.81 21.95 C 434.81 34.16 430.98 46.64 429.32 59.41 C 429.00 61.87 428.69 64.32 428.37 66.78 C 395.87 319.19 374.12 572.99 341.40 825.37 C 338.60 847.04 335.25 868.64 331.37 890.17 C 328.64 905.30 325.65 920.39 322.39 935.45 C 322.13 936.67 322.46 937.92 323.23 938.91 C 324.00 939.90 325.16 940.55 326.45 940.72 C 327.74 940.88 329.03 940.55 330.03 939.79 C 331.03 939.03 331.66 937.91 331.72 936.66 C 331.72 936.66 331.72 936.66 331.72 936.66 C 332.41 921.27 333.36 905.91 334.58 890.59 C 336.32 868.78 338.60 847.04 341.40 825.37 C 374.12 572.99 417.81 322.03 450.73 69.68 C 451.05 67.22 451.37 64.77 451.69 62.31 C 453.35 49.54 452.83 36.49 450.13 23.16 Z" fill="#f9f1de" fill-opacity="0.3" fill-rule="nonzero" node-id="197" stroke="none" target-height="922.3973" target-width="131.215" target-x="322.131" target-y="18.4857"></path><path d="M 390.87 1165.94 C 390.67 1165.55 390.47 1165.18 390.24 1164.87 C 390.01 1164.57 389.75 1164.36 389.44 1164.26 C 389.13 1164.16 388.80 1164.18 388.43 1164.30 C 388.07 1164.41 387.68 1164.60 387.29 1164.80 C 387.29 1164.80 387.29 1164.80 387.29 1164.80 C 379.82 1168.70 374.26 1173.21 370.62 1178.33 C 368.87 1180.77 367.57 1183.36 366.70 1186.08 C 334.86 1285.99 306.77 1387.08 282.41 1489.37 C 281.02 1495.21 279.64 1501.05 278.27 1506.89 C 278.17 1507.36 278.22 1507.86 278.45 1508.29 C 278.68 1508.72 279.06 1509.04 279.52 1509.18 C 279.97 1509.33 280.47 1509.29 280.91 1509.07 C 281.34 1508.85 281.67 1508.48 281.86 1508.03 C 281.86 1508.03 281.86 1508.03 281.86 1508.03 C 284.12 1502.48 286.38 1496.91 288.62 1491.35 C 327.94 1393.83 363.52 1295.12 395.36 1195.21 C 396.22 1192.49 396.65 1189.63 396.65 1186.62 C 396.64 1180.34 394.71 1173.44 390.87 1165.94 Z" fill="#f9f1de" fill-rule="nonzero" node-id="199" stroke="none" target-height="345.16992" target-width="118.48999" target-x="278.165" target-y="1164.16"></path><path d="M 265.00 1712.81 C 265.05 1711.60 264.67 1710.39 263.88 1709.46 C 263.10 1708.52 261.98 1707.92 260.78 1707.80 C 259.58 1707.69 258.37 1708.05 257.42 1708.81 C 256.46 1709.58 255.84 1710.68 255.65 1711.88 C 255.65 1711.88 255.65 1711.88 255.65 1711.88 C 255.20 1714.70 254.75 1717.51 254.31 1720.33 C 246.64 1769.18 240.36 1818.16 235.47 1867.29 C 235.29 1869.20 235.35 1871.13 235.66 1873.09 C 236.13 1876.00 237.16 1878.96 238.74 1881.98 C 239.25 1882.94 239.82 1883.87 240.56 1884.58 C 241.30 1885.30 242.15 1885.74 243.07 1885.83 C 244.00 1885.93 244.93 1885.66 245.79 1885.10 C 246.66 1884.55 247.40 1883.75 248.09 1882.91 C 248.09 1882.91 248.09 1882.91 248.09 1882.91 C 250.23 1880.26 251.82 1877.56 252.85 1874.80 C 253.55 1872.94 253.99 1871.06 254.18 1869.15 C 259.06 1820.02 262.56 1770.76 264.65 1721.36 C 264.78 1718.51 264.89 1715.66 265.00 1712.81 Z" fill="#f9f1de" fill-rule="nonzero" node-id="201" stroke="none" target-height="178.24023" target-width="29.766006" target-x="235.286" target-y="1707.69"></path><path d="M 259.36 2507.01 C 259.40 2505.80 259.03 2504.60 258.26 2503.66 C 257.48 2502.72 256.39 2502.12 255.19 2501.98 C 254.00 2501.85 252.80 2502.20 251.84 2502.94 C 250.87 2503.69 250.24 2504.78 250.02 2505.96 C 250.02 2505.96 250.02 2505.96 250.02 2505.96 C 249.06 2511.11 248.12 2516.25 247.21 2521.40 C 240.66 2558.27 235.31 2595.28 231.16 2632.42 C 224.88 2688.60 219.90 2744.93 216.23 2801.40 C 215.89 2806.62 215.56 2811.83 215.25 2817.04 C 215.17 2818.26 215.54 2819.47 216.32 2820.42 C 217.09 2821.37 218.20 2821.98 219.41 2822.12 C 220.62 2822.25 221.83 2821.90 222.80 2821.15 C 223.76 2820.39 224.39 2819.29 224.59 2818.09 C 224.59 2818.09 224.59 2818.09 224.59 2818.09 C 225.43 2812.93 226.26 2807.78 227.08 2802.62 C 235.97 2746.73 243.56 2690.69 249.84 2634.51 C 253.99 2597.37 256.94 2560.09 258.69 2522.68 C 258.94 2517.46 259.16 2512.24 259.36 2507.01 Z" fill="#f9f1de" fill-rule="nonzero" node-id="203" stroke="none" target-height="320.39966" target-width="44.231995" target-x="215.173" target-y="2501.85"></path><path d="M 779.04 2127.95 C 779.37 2125.48 778.70 2122.99 777.16 2121.02 C 775.63 2119.06 773.35 2117.78 770.86 2117.47 C 768.36 2117.17 765.84 2117.85 763.88 2119.39 C 761.91 2120.92 760.66 2123.18 760.38 2125.65 C 760.38 2125.65 760.38 2125.65 760.38 2125.65 C 759.53 2133.18 758.69 2140.71 757.84 2148.24 C 742.61 2283.74 727.37 2419.25 712.13 2554.75 C 711.29 2562.28 710.44 2569.81 709.60 2577.34 C 709.46 2578.56 709.82 2579.80 710.58 2580.77 C 711.35 2581.75 712.47 2582.38 713.69 2582.53 C 714.92 2582.68 716.15 2582.34 717.13 2581.58 C 718.11 2580.82 718.76 2579.71 718.92 2578.49 C 718.92 2578.49 718.92 2578.49 718.92 2578.49 C 719.92 2570.98 720.93 2563.47 721.93 2555.96 C 739.96 2420.80 758.00 2285.64 776.03 2150.47 C 777.03 2142.97 778.03 2135.46 779.04 2127.95 Z" fill="#f9f1de" fill-rule="nonzero" node-id="205" stroke="none" target-height="465.51" target-width="69.90796" target-x="709.458" target-y="2117.17"></path><path d="M 968.93 2002.06 C 968.96 2001.58 968.82 2001.09 968.52 2000.71 C 968.22 2000.32 967.79 2000.07 967.31 2000.01 C 966.84 1999.94 966.35 2000.07 965.96 2000.36 C 965.57 2000.65 965.30 2001.08 965.21 2001.55 C 965.21 2001.55 965.21 2001.55 965.21 2001.55 C 964.44 2005.23 963.69 2008.91 962.95 2012.59 C 956.76 2043.50 951.56 2074.54 947.35 2105.72 C 942.54 2141.36 938.74 2177.14 935.97 2213.06 C 935.68 2216.80 935.40 2220.55 935.13 2224.29 C 935.10 2224.77 935.24 2225.26 935.54 2225.64 C 935.84 2226.03 936.27 2226.28 936.75 2226.35 C 937.23 2226.41 937.72 2226.28 938.11 2225.99 C 938.50 2225.70 938.76 2225.27 938.86 2224.79 C 938.86 2224.79 938.86 2224.79 938.86 2224.79 C 939.59 2221.11 940.32 2217.43 941.03 2213.75 C 947.88 2178.38 953.71 2142.87 958.52 2107.23 C 962.74 2076.05 965.95 2044.74 968.18 2013.30 C 968.44 2009.55 968.70 2005.80 968.93 2002.06 Z" fill="#f9f1de" fill-opacity="0.4" fill-rule="nonzero" node-id="207" stroke="none" target-height="226.46997" target-width="33.863953" target-x="935.098" target-y="1999.94"></path><path d="M 1018.73 1514.55 C 1017.50 1514.28 1016.47 1514.03 1015.76 1513.86 C 1015.04 1513.68 1014.59 1513.58 1014.12 1513.53 C 1013.65 1513.48 1013.18 1513.48 1012.44 1513.50 C 1011.71 1513.52 1010.65 1513.53 1009.39 1513.53 C 1009.39 1513.53 1009.39 1513.53 1009.39 1513.53 C 1004.98 1513.55 1002.74 1513.80 1002.69 1514.28 C 1001.96 1521.02 1001.23 1527.75 1000.51 1534.49 C 986.60 1664.49 974.47 1794.68 964.11 1925.06 C 963.53 1932.30 962.96 1939.54 962.40 1946.79 C 962.30 1948.01 962.67 1949.24 963.45 1950.20 C 964.23 1951.15 965.35 1951.77 966.57 1951.90 C 967.79 1952.03 969.02 1951.67 969.98 1950.90 C 970.95 1950.14 971.57 1949.02 971.74 1947.80 C 971.74 1947.80 971.74 1947.80 971.74 1947.80 C 972.74 1940.61 973.74 1933.41 974.73 1926.21 C 992.57 1796.64 1008.63 1666.88 1022.91 1536.92 C 1023.65 1530.19 1024.38 1523.45 1025.11 1516.72 C 1025.17 1516.23 1023.04 1515.51 1018.73 1514.55 Z" fill="#f9f1de" fill-rule="nonzero" node-id="209" stroke="none" target-height="438.55005" target-width="62.86798" target-x="962.30206" target-y="1513.48"></path><path d="M 1236.78 2657.07 C 1236.36 2656.85 1235.97 2656.64 1235.68 2656.48 C 1235.39 2656.32 1235.20 2656.23 1234.99 2656.21 C 1234.78 2656.19 1234.57 2656.23 1234.25 2656.32 C 1233.94 2656.40 1233.51 2656.52 1233.05 2656.64 C 1233.05 2656.64 1233.05 2656.64 1233.05 2656.64 C 1226.54 2658.38 1223.15 2660.47 1222.87 2662.92 C 1222.41 2666.86 1222.01 2670.80 1221.65 2674.75 C 1216.62 2729.88 1220.04 2785.98 1213.71 2840.96 C 1206.79 2901.02 1192.05 2960.17 1183.81 3020.07 C 1183.05 3025.60 1182.34 3031.14 1181.70 3036.68 C 1181.60 3037.53 1184.00 3038.66 1188.88 3040.09 C 1189.36 3040.22 1189.77 3040.35 1190.05 3040.44 C 1190.34 3040.53 1190.52 3040.59 1190.71 3040.61 C 1190.90 3040.63 1191.09 3040.62 1191.39 3040.60 C 1191.69 3040.57 1192.11 3040.54 1192.61 3040.52 C 1192.61 3040.52 1192.61 3040.52 1192.61 3040.52 C 1197.69 3040.24 1200.28 3039.68 1200.38 3038.83 C 1201.01 3033.29 1201.59 3027.74 1202.10 3022.18 C 1207.70 2961.97 1206.79 2901.02 1213.71 2840.96 C 1220.04 2785.98 1236.13 2732.13 1243.77 2677.30 C 1244.32 2673.37 1244.82 2669.44 1245.27 2665.50 C 1245.56 2663.05 1242.73 2660.24 1236.78 2657.07 Z" fill="#f9f1de" fill-opacity="0.4" fill-rule="nonzero" node-id="211" stroke="none" target-height="384.43994" target-width="63.960083" target-x="1181.6" target-y="2656.19"></path><path d="M 666.31 43.47 C 666.35 42.98 666.21 42.49 665.90 42.11 C 665.60 41.72 665.16 41.47 664.68 41.41 C 664.20 41.35 663.71 41.49 663.32 41.78 C 662.93 42.08 662.67 42.52 662.58 43.00 L 662.58 43.00 C 661.49 49.19 660.40 55.39 659.32 61.58 C 639.89 173.13 623.00 284.99 608.64 397.17 C 607.90 402.95 607.17 408.73 606.44 414.51 C 606.38 414.96 609.43 415.81 615.59 417.04 C 616.09 417.14 616.50 417.23 616.79 417.29 C 617.08 417.35 617.25 417.39 617.44 417.41 C 617.63 417.44 617.81 417.44 618.11 417.46 C 618.40 417.47 618.82 417.49 619.32 417.51 C 619.32 417.51 619.32 417.51 619.32 417.51 C 625.60 417.84 628.76 417.78 628.82 417.32 C 629.54 411.54 630.26 405.76 630.98 399.98 C 644.81 287.73 656.11 175.17 664.88 62.28 C 665.36 56.01 665.84 49.74 666.31 43.47 Z" fill="#f9f1de" fill-rule="nonzero" node-id="213" stroke="none" target-height="376.487" target-width="59.967957" target-x="606.382" target-y="41.352"></path><path d="M 855.22 105.47 C 855.24 104.99 855.09 104.51 854.78 104.14 C 854.48 103.76 854.04 103.51 853.56 103.46 C 853.08 103.40 852.60 103.54 852.21 103.84 C 851.83 104.14 851.58 104.57 851.49 105.04 C 851.49 105.04 851.49 105.04 851.49 105.04 C 849.95 113.10 848.45 121.17 846.97 129.24 C 832.96 205.81 821.49 282.67 812.57 359.83 C 804.57 429.00 799.07 498.46 796.05 568.20 C 795.70 576.40 795.38 584.60 795.10 592.81 C 795.08 593.29 795.23 593.77 795.54 594.14 C 795.84 594.52 796.28 594.76 796.76 594.82 C 797.23 594.87 797.71 594.74 798.10 594.44 C 798.48 594.14 798.74 593.71 798.83 593.24 C 800.42 585.18 801.98 577.13 803.51 569.07 C 816.49 500.47 826.98 431.59 834.97 362.43 C 843.89 285.26 850.27 207.81 854.09 130.06 C 854.50 121.87 854.87 113.67 855.22 105.47 Z" fill="#f9f1de" fill-rule="nonzero" node-id="215" stroke="none" target-height="491.46802" target-width="60.160034" target-x="795.079" target-y="103.404"></path><path d="M 1073.25 624.28 C 1073.28 623.80 1073.14 623.32 1072.84 622.93 C 1072.54 622.55 1072.10 622.30 1071.63 622.24 C 1071.15 622.17 1070.67 622.30 1070.27 622.59 C 1069.88 622.89 1069.62 623.32 1069.53 623.79 C 1069.53 623.79 1069.53 623.79 1069.53 623.79 C 1068.47 628.94 1067.43 634.10 1066.40 639.25 C 1049.76 722.53 1035.87 806.17 1024.74 890.18 C 1023.47 899.77 1023.50 909.55 1024.84 919.49 C 1025.57 924.88 1026.68 930.32 1028.17 935.81 C 1028.29 936.23 1028.47 936.65 1028.77 936.98 C 1029.06 937.30 1029.43 937.51 1029.84 937.57 C 1030.24 937.62 1030.66 937.51 1031.03 937.28 C 1031.39 937.03 1031.68 936.68 1031.90 936.30 C 1031.90 936.30 1031.90 936.30 1031.90 936.30 C 1034.77 931.39 1037.26 926.43 1039.37 921.42 C 1043.25 912.16 1045.83 902.74 1047.10 893.14 C 1058.23 809.13 1066.61 724.76 1072.24 640.02 C 1072.59 634.78 1072.93 629.53 1073.25 624.28 Z" fill="#f9f1de" fill-rule="nonzero" node-id="217" stroke="none" target-height="315.448" target-width="49.81006" target-x="1023.47" target-y="622.174"></path><path d="M 1228.32 155.31 C 1228.17 154.90 1227.97 154.50 1227.68 154.19 C 1227.39 153.88 1227.03 153.68 1226.65 153.63 C 1226.26 153.58 1225.86 153.68 1225.50 153.91 C 1225.14 154.14 1224.85 154.47 1224.59 154.83 C 1224.59 154.83 1224.59 154.83 1224.59 154.83 C 1219.93 161.50 1217.14 168.41 1216.21 175.56 C 1215.54 180.67 1214.88 185.78 1214.23 190.90 C 1195.62 337.45 1183.50 484.85 1164.41 631.35 C 1154.74 705.62 1135.21 778.60 1122.95 852.53 C 1121.11 863.64 1119.43 874.78 1117.98 885.94 C 1117.84 887.04 1121.42 888.63 1128.73 890.70 C 1129.22 890.84 1129.62 890.96 1129.91 891.05 C 1130.19 891.14 1130.37 891.19 1130.56 891.21 C 1130.75 891.24 1130.94 891.23 1131.24 891.22 C 1131.53 891.21 1131.96 891.19 1132.46 891.19 C 1132.46 891.19 1132.46 891.19 1132.46 891.19 C 1140.06 891.06 1143.93 890.44 1144.07 889.34 C 1145.53 878.18 1146.76 866.99 1147.83 855.77 C 1154.92 781.17 1154.74 705.62 1164.41 631.35 C 1183.50 484.85 1209.54 339.26 1229.10 192.83 C 1229.78 187.72 1230.45 182.62 1231.12 177.51 C 1232.05 170.35 1231.12 162.95 1228.32 155.31 Z" fill="#f9f1de" fill-rule="nonzero" node-id="219" stroke="none" target-height="737.66" target-width="114.21008" target-x="1117.84" target-y="153.578"></path><path d="M 1456.69 711.89 C 1456.87 710.66 1456.50 709.42 1455.70 708.46 C 1454.91 707.50 1453.74 706.89 1452.47 706.76 C 1451.20 706.64 1449.93 707.01 1448.97 707.80 C 1448.00 708.60 1447.40 709.74 1447.34 710.99 C 1447.34 710.99 1447.34 710.99 1447.34 710.99 C 1447.00 717.94 1446.65 724.89 1446.27 731.85 C 1443.21 789.06 1438.91 846.15 1433.37 903.12 C 1426.79 970.77 1418.92 1038.29 1409.77 1105.69 C 1408.84 1112.59 1407.89 1119.49 1406.92 1126.38 C 1406.75 1127.62 1407.12 1128.86 1407.92 1129.82 C 1408.72 1130.78 1409.88 1131.39 1411.15 1131.51 C 1412.41 1131.64 1413.67 1131.26 1414.64 1130.47 C 1415.61 1129.68 1416.21 1128.54 1416.28 1127.29 C 1416.28 1127.29 1416.28 1127.29 1416.28 1127.29 C 1416.66 1120.34 1417.06 1113.39 1417.47 1106.44 C 1421.49 1038.54 1426.79 970.77 1433.37 903.12 C 1438.91 846.15 1445.69 789.30 1453.71 732.57 C 1454.69 725.68 1455.68 718.78 1456.69 711.89 Z" fill="#f9f1de" fill-rule="nonzero" node-id="221" stroke="none" target-height="425.00104" target-width="50.119873" target-x="1406.7501" target-y="706.639"></path><path d="M 1524.37 1409.92 C 1523.87 1409.84 1523.45 1409.78 1523.17 1409.74 C 1522.87 1409.69 1522.69 1409.67 1522.51 1409.65 C 1522.32 1409.63 1522.14 1409.62 1521.85 1409.60 C 1521.56 1409.58 1521.14 1409.56 1520.63 1409.53 C 1520.63 1409.53 1520.63 1409.53 1520.63 1409.53 C 1516.88 1409.29 1514.99 1409.24 1514.98 1409.39 C 1514.19 1416.94 1513.50 1424.49 1512.87 1432.04 C 1507.72 1494.16 1507.23 1556.76 1500.79 1618.74 C 1492.85 1695.19 1482.33 1771.38 1469.25 1847.30 C 1467.93 1854.93 1466.59 1862.57 1465.22 1870.20 C 1464.78 1872.66 1465.50 1875.14 1467.08 1877.08 C 1468.67 1879.01 1471.03 1880.25 1473.60 1880.52 C 1476.17 1880.79 1478.73 1880.06 1480.68 1878.49 C 1482.63 1876.92 1483.84 1874.64 1483.92 1872.14 C 1483.92 1872.14 1483.92 1872.14 1483.92 1872.14 C 1484.15 1864.39 1484.40 1856.64 1484.68 1848.90 C 1487.48 1771.91 1492.85 1695.19 1500.79 1618.74 C 1507.23 1556.76 1519.61 1495.39 1527.34 1433.55 C 1528.28 1426.02 1529.15 1418.49 1529.93 1410.95 C 1529.95 1410.80 1528.09 1410.45 1524.37 1409.92 Z" fill="#f9f1de" fill-rule="nonzero" node-id="223" stroke="none" target-height="471.54993" target-width="65.1698" target-x="1464.78" target-y="1409.24"></path><path d="M 1694.47 60.38 C 1694.52 59.89 1694.38 59.40 1694.07 59.01 C 1693.77 58.62 1693.32 58.37 1692.83 58.31 C 1692.35 58.25 1691.85 58.38 1691.46 58.69 C 1691.07 58.99 1690.81 59.43 1690.74 59.92 C 1690.74 59.92 1690.74 59.92 1690.74 59.92 C 1688.86 72.47 1686.98 85.02 1685.12 97.58 C 1652.13 319.56 1621.93 541.88 1594.51 764.55 C 1594.01 768.57 1593.70 772.61 1593.57 776.67 C 1593.16 789.40 1594.54 802.36 1597.70 815.53 C 1597.80 815.96 1597.98 816.38 1598.28 816.71 C 1598.58 817.04 1598.96 817.26 1599.37 817.31 C 1599.79 817.36 1600.21 817.25 1600.58 817.00 C 1600.95 816.75 1601.22 816.38 1601.43 815.99 C 1601.43 815.99 1601.43 815.99 1601.43 815.99 C 1607.70 803.98 1612.17 791.74 1614.86 779.29 C 1615.72 775.32 1616.40 771.32 1616.89 767.31 C 1644.31 544.64 1668.94 321.63 1690.79 98.28 C 1692.03 85.65 1693.25 73.01 1694.47 60.38 Z" fill="#f9f1de" fill-rule="nonzero" node-id="225" stroke="none" target-height="759.112" target-width="101.35986" target-x="1593.16" target-y="58.247005"></path><path d="M 1950.10 21.82 C 1950.14 21.33 1949.99 20.84 1949.68 20.46 C 1949.37 20.08 1948.92 19.83 1948.43 19.78 C 1947.95 19.73 1947.46 19.87 1947.07 20.18 C 1946.69 20.48 1946.44 20.93 1946.37 21.41 C 1946.37 21.41 1946.37 21.41 1946.37 21.41 C 1944.33 35.69 1942.32 49.98 1940.32 64.26 C 1916.65 233.49 1895.63 403.00 1877.26 572.81 C 1871.11 629.61 1876.18 687.62 1870.03 744.43 C 1866.64 775.80 1862.36 807.08 1857.20 838.26 C 1854.85 852.51 1852.31 866.73 1849.59 880.94 C 1849.31 882.41 1849.73 883.90 1850.68 885.07 C 1851.63 886.23 1853.04 886.98 1854.59 887.15 C 1856.14 887.32 1857.68 886.89 1858.85 885.95 C 1860.03 885.02 1860.76 883.65 1860.80 882.15 C 1860.80 882.15 1860.80 882.15 1860.80 882.15 C 1861.18 867.69 1861.74 853.26 1862.49 838.84 C 1864.12 807.27 1866.64 775.80 1870.03 744.43 C 1876.18 687.62 1893.53 632.04 1899.68 575.23 C 1918.05 405.43 1933.78 235.34 1946.85 64.97 C 1947.95 50.59 1949.04 36.20 1950.10 21.82 Z" fill="#f9f1de" fill-rule="nonzero" node-id="227" stroke="none" target-height="867.5944" target-width="100.829956" target-x="1849.31" target-y="19.7256"></path><path d="M 1819.47 996.39 C 1819.42 995.93 1819.25 995.48 1818.94 995.13 C 1818.63 994.78 1818.22 994.56 1817.77 994.52 C 1817.32 994.47 1816.87 994.61 1816.50 994.89 C 1816.12 995.17 1815.87 995.58 1815.73 996.02 C 1815.73 996.02 1815.73 996.02 1815.73 996.02 C 1811.19 1010.49 1807.12 1025.00 1803.53 1039.56 C 1795.53 1072.02 1789.90 1104.71 1786.66 1137.63 C 1763.68 1370.58 1745.12 1603.96 1730.97 1837.78 C 1730.07 1852.61 1729.19 1867.44 1728.33 1882.26 C 1728.30 1882.75 1728.45 1883.24 1728.77 1883.62 C 1729.08 1884.00 1729.53 1884.23 1730.02 1884.28 C 1730.50 1884.33 1730.99 1884.18 1731.37 1883.87 C 1731.76 1883.56 1732.00 1883.12 1732.07 1882.63 C 1732.07 1882.63 1732.07 1882.63 1732.07 1882.63 C 1734.12 1867.92 1736.16 1853.21 1738.17 1838.49 C 1769.97 1606.41 1797.35 1373.90 1820.33 1140.96 C 1823.57 1108.03 1824.44 1074.87 1822.94 1041.47 C 1822.26 1026.49 1821.11 1011.46 1819.47 996.39 Z" fill="#f9f1de" fill-opacity="0.5" fill-rule="nonzero" node-id="229" stroke="none" target-height="889.85596" target-width="96.13989" target-x="1728.3" target-y="994.474"></path><path d="M 1928.48 1692.86 C 1928.43 1692.41 1928.27 1691.97 1927.98 1691.61 C 1927.68 1691.26 1927.28 1691.03 1926.85 1690.97 C 1926.41 1690.91 1925.96 1691.02 1925.58 1691.28 C 1925.21 1691.55 1924.93 1691.93 1924.76 1692.35 C 1924.76 1692.35 1924.76 1692.35 1924.76 1692.35 C 1920.29 1703.19 1916.31 1714.11 1912.82 1725.08 C 1905.92 1746.79 1900.94 1768.75 1897.88 1790.98 C 1888.12 1861.76 1893.26 1934.58 1883.50 2005.36 C 1871.02 2095.88 1841.78 2184.09 1829.29 2274.61 C 1826.69 2293.52 1826.03 2312.70 1827.33 2332.15 C 1828.10 2343.72 1829.56 2355.38 1831.72 2367.14 C 1831.80 2367.58 1831.97 2368.01 1832.26 2368.35 C 1832.55 2368.69 1832.94 2368.92 1833.36 2368.97 C 1833.78 2369.03 1834.22 2368.92 1834.59 2368.67 C 1834.96 2368.42 1835.24 2368.05 1835.44 2367.65 C 1835.44 2367.65 1835.44 2367.65 1835.44 2367.65 C 1840.69 2356.91 1845.26 2346.08 1849.13 2335.16 C 1855.64 2316.79 1860.20 2298.14 1862.81 2279.23 C 1875.29 2188.71 1871.02 2095.88 1883.50 2005.36 C 1893.26 1934.58 1917.91 1865.86 1927.67 1795.09 C 1930.73 1772.86 1931.88 1750.37 1931.12 1727.61 C 1930.73 1716.09 1929.85 1704.51 1928.48 1692.86 Z" fill="#f9f1de" fill-rule="nonzero" node-id="231" stroke="none" target-height="678.12" target-width="105.849976" target-x="1826.03" target-y="1690.91"></path><path d="M 1797.86 2486.83 C 1797.82 2486.36 1797.63 2485.91 1797.29 2485.56 C 1796.96 2485.22 1796.52 2485.02 1796.06 2485.00 C 1795.59 2484.98 1795.14 2485.15 1794.78 2485.46 C 1794.42 2485.78 1794.19 2486.21 1794.11 2486.67 C 1794.11 2486.67 1794.11 2486.67 1794.11 2486.67 C 1792.50 2495.67 1790.99 2504.24 1789.57 2513.06 C 1782.45 2557.24 1777.66 2601.03 1774.93 2645.28 C 1768.31 2759.46 1758.85 2873.44 1751.52 2988.14 C 1750.97 2997.05 1750.47 3005.73 1749.95 3014.71 C 1749.92 3015.19 1750.07 3015.67 1750.37 3016.05 C 1750.68 3016.43 1751.12 3016.68 1751.60 3016.74 C 1752.08 3016.79 1752.57 3016.66 1752.95 3016.36 C 1753.34 3016.06 1753.60 3015.62 1753.68 3015.15 C 1755.27 3006.29 1756.80 2997.74 1758.34 2988.95 C 1778.52 2875.99 1794.54 2761.71 1801.20 2646.90 C 1803.94 2602.43 1803.51 2558.18 1800.20 2513.52 C 1799.54 2504.60 1798.75 2495.92 1797.86 2486.83 Z" fill="#f9f1de" fill-rule="nonzero" node-id="233" stroke="none" target-height="531.8103" target-width="54.02002" target-x="1749.92" target-y="2484.98"></path></g></svg>